<?xml version="1.0" encoding="utf-8"?>
<!-- Generator: Adobe Illustrator 16.0.0, SVG Export Plug-In . SVG Version: 6.00 Build 0)  -->
<!DOCTYPE svg PUBLIC "-//W3C//DTD SVG 1.1//EN" "http://www.w3.org/Graphics/SVG/1.1/DTD/svg11.dtd">
<svg version="1.1" id="Layer_1" xmlns="http://www.w3.org/2000/svg" xmlns:xlink="http://www.w3.org/1999/xlink" x="0px" y="0px"
	 width="226.12px" height="47.26px" viewBox="0 0 226.12 47.26" enable-background="new 0 0 226.12 47.26" xml:space="preserve">
<g>
	<rect x="0" y="0" fill="#0D6EA9" width="98.931" height="47.26"/>
	<g>
		<path fill="#FFFFFF" d="M13.187,28.374c-0.065-0.815-0.083-1.634-0.052-2.451l1.166-13.237h4.335l-1.188,13.354
			c-0.256,2.89,0.878,4.951,3.764,4.951c2.95,0,4.509-2.096,4.767-4.658l1.23-13.647h4.331L30.342,26.16
			c-0.482,5.189-3.926,9.076-9.489,9.076C16.513,35.237,13.717,32.432,13.187,28.374"/>
		<path fill="#FFFFFF" d="M33.302,23.891c0.565-6.354,4.854-11.624,12.259-11.624c2.02-0.029,4.001,0.544,5.692,1.646l-0.495,5.25
			c-1.298-1.776-3.416-2.763-5.61-2.611c-4.608,0-7.137,3.2-7.498,7.252c-0.35,3.946,1.688,7.154,6.151,7.154
			c2.354,0.01,4.601-0.98,6.181-2.724L49.5,33.623c-1.838,1.062-3.918,1.634-6.04,1.663C36.132,35.286,32.775,29.84,33.302,23.891"
			/>
		<path fill="#FFFFFF" d="M54.714,12.686h4.322l-1.577,17.979h6.193c0.437,0,1.912-0.023,2.313-0.047
			c-0.022,0.217-0.396,4.153-0.396,4.153H52.753L54.714,12.686z"/>
		<path fill="#FFFFFF" d="M77.234,20.931c0.135-0.3,0.242-0.61,0.321-0.929L77.622,20c0.027,0.315,0.083,0.629,0.165,0.935
			c0.237,1.008,1.922,6.598,1.922,6.598h-5.458C74.251,27.532,77.176,21.073,77.234,20.931 M78.342,11.673l-0.3,0.005L66.208,34.771
			h4.593l1.662-3.503h8.339l1.043,3.503h4.581L78.342,11.673z"/>
	</g>
</g>
<path d="M108.969,14.68h3.94l7.14,12.541V14.68h3.502v17.986h-3.758l-7.322-12.763v12.763h-3.502V14.68z"/>
<path d="M131.816,24.575c0.474-0.041,0.941-0.144,1.389-0.305c0.439-0.13,0.743-0.53,0.75-0.988
	c0.047-0.456-0.179-0.897-0.575-1.129c-0.529-0.236-1.108-0.343-1.688-0.311c-0.65-0.067-1.298,0.155-1.769,0.609
	c-0.271,0.356-0.44,0.777-0.494,1.221h-3.356c0.028-1.033,0.37-2.033,0.98-2.868c0.923-1.171,2.508-1.756,4.755-1.757
	c1.35-0.025,2.686,0.271,3.897,0.866c1.176,0.646,1.848,1.937,1.703,3.271v6.102c0,0.423,0.009,0.936,0.024,1.537
	c-0.009,0.322,0.062,0.641,0.208,0.928c0.132,0.178,0.309,0.316,0.512,0.402v0.513h-3.783c-0.099-0.244-0.172-0.497-0.22-0.757
	c-0.04-0.235-0.073-0.503-0.098-0.805c-0.486,0.524-1.05,0.973-1.669,1.33c-0.778,0.438-1.66,0.661-2.553,0.646
	c-1.094,0.041-2.164-0.326-3.001-1.031c-0.815-0.746-1.251-1.819-1.185-2.923c-0.1-1.451,0.641-2.831,1.905-3.551
	c0.962-0.476,2.004-0.766,3.073-0.854L131.816,24.575z M133.942,26.198c-0.213,0.135-0.438,0.247-0.674,0.336
	c-0.305,0.105-0.616,0.186-0.934,0.238l-0.792,0.146c-0.556,0.071-1.095,0.232-1.599,0.476c-0.534,0.294-0.854,0.868-0.821,1.477
	c-0.046,0.484,0.141,0.962,0.502,1.287c0.349,0.27,0.779,0.409,1.22,0.396c0.751,0.003,1.484-0.228,2.101-0.658
	c0.708-0.588,1.081-1.487,0.997-2.404V26.198z"/>
<path d="M150.922,20.129c0.956,0.934,1.437,2.251,1.306,3.581v8.957h-3.562v-8.092c0.027-0.551-0.067-1.101-0.279-1.609
	c-0.376-0.706-1.143-1.112-1.938-1.025c-1.045-0.079-2.021,0.528-2.411,1.501c-0.247,0.646-0.362,1.335-0.339,2.026v7.199h-3.478
	V19.39h3.368v1.94c0.336-0.559,0.763-1.058,1.264-1.477c0.789-0.562,1.742-0.845,2.71-0.806
	C148.776,18.997,149.966,19.38,150.922,20.129z"/>
<path d="M166.304,31.039c-2.846,2.771-7.381,2.771-10.227,0c-2.245-2.952-2.245-7.039,0-9.991c2.829-2.812,7.397-2.812,10.227,0
	C168.548,24,168.548,28.087,166.304,31.039z M163.522,29.117c0.599-0.912,0.886-1.994,0.817-3.083
	c0.069-1.087-0.218-2.167-0.817-3.077c-1.112-1.295-3.063-1.444-4.359-0.333c-0.119,0.103-0.23,0.214-0.333,0.333
	c-0.604,0.908-0.893,1.989-0.823,3.077c-0.068,1.09,0.221,2.173,0.823,3.083c1.103,1.296,3.047,1.452,4.343,0.35
	C163.298,29.361,163.414,29.243,163.522,29.117z"/>
<path d="M170.508,14.68h3.758v14.753h8.981v3.233h-12.739V14.68z"/>
<path d="M190.511,24.575c0.474-0.041,0.941-0.144,1.389-0.305c0.439-0.13,0.743-0.53,0.75-0.988
	c0.046-0.456-0.179-0.897-0.575-1.129c-0.53-0.236-1.109-0.343-1.688-0.311c-0.65-0.067-1.298,0.155-1.769,0.609
	c-0.271,0.356-0.441,0.777-0.495,1.221h-3.355c0.027-1.033,0.369-2.033,0.979-2.868c0.924-1.171,2.509-1.756,4.756-1.757
	c1.35-0.025,2.686,0.271,3.896,0.866c1.177,0.646,1.849,1.937,1.704,3.271v6.102c0,0.423,0.008,0.936,0.024,1.537
	c-0.01,0.322,0.062,0.641,0.207,0.928c0.132,0.178,0.309,0.316,0.513,0.402v0.513h-3.783c-0.099-0.244-0.173-0.497-0.22-0.757
	c-0.041-0.235-0.073-0.503-0.098-0.805c-0.487,0.524-1.05,0.973-1.669,1.33c-0.779,0.438-1.66,0.661-2.554,0.646
	c-1.093,0.041-2.163-0.326-3-1.031c-0.815-0.746-1.251-1.819-1.186-2.923c-0.099-1.451,0.642-2.831,1.906-3.551
	c0.961-0.476,2.004-0.766,3.073-0.854L190.511,24.575z M192.637,26.198c-0.213,0.135-0.438,0.247-0.674,0.336
	c-0.305,0.105-0.616,0.186-0.934,0.238l-0.792,0.146c-0.556,0.071-1.095,0.232-1.599,0.476c-0.534,0.294-0.854,0.868-0.821,1.477
	c-0.046,0.484,0.141,0.962,0.502,1.287c0.349,0.27,0.779,0.409,1.22,0.396c0.751,0.003,1.484-0.228,2.101-0.658
	c0.708-0.588,1.081-1.487,0.997-2.404V26.198z"/>
<path d="M210.249,20.964c1.041,1.408,1.568,3.131,1.492,4.881c0.07,1.826-0.445,3.627-1.472,5.138
	c-1.617,2.053-4.48,2.636-6.771,1.379c-0.512-0.374-0.952-0.837-1.3-1.367v1.672h-3.429V14.704h3.478v6.394
	c0.387-0.565,0.884-1.046,1.461-1.415c0.727-0.433,1.562-0.645,2.407-0.609C207.718,19,209.257,19.704,210.249,20.964z
	 M207.342,29.067c0.535-0.853,0.797-1.85,0.75-2.855c0.024-0.797-0.102-1.592-0.369-2.343c-0.365-1.103-1.424-1.822-2.584-1.758
	c-1.159-0.073-2.228,0.628-2.621,1.721c-0.271,0.759-0.396,1.562-0.369,2.367c-0.039,1,0.228,1.987,0.764,2.831
	c0.523,0.758,1.406,1.184,2.325,1.123C206.08,30.184,206.878,29.772,207.342,29.067z"/>
</svg>
