<?xml version="1.0" encoding="UTF-8"?> <svg xmlns="http://www.w3.org/2000/svg" xmlns:xlink="http://www.w3.org/1999/xlink" width="211.7408" height="47.2601" viewBox="0 0 211.7408 47.2601"><defs><style>.a{fill:none;}.b{clip-path:url(#a);}.c{fill:#3284bf;}.d{clip-path:url(#b);}.e{fill:#fff;}</style><clipPath id="a" transform="translate(-9.9512 -13.9812)"><rect class="a" x="9.9512" y="13.9812" width="98.9331" height="47.312"></rect></clipPath><clipPath id="b" transform="translate(-9.9512 -13.9812)"><rect class="a" x="9.9512" y="13.9812" width="98.9307" height="47.2601"></rect></clipPath></defs><title>Nanolab-logo-230x75-Oct-2019</title><g class="b"><rect class="c" width="98.9307" height="47.2601"></rect><g class="d"><path class="e" d="M23.1379,42.3556a20.7047,20.7047,0,0,1-.0515-2.451l1.166-13.238h4.3351L27.4,40.02c-.2561,2.8906.8774,4.9521,3.7635,4.9521,2.95,0,4.5091-2.0965,4.7665-4.6591l1.23-13.6468h4.3317L40.2937,40.1411c-.4832,5.19-3.926,9.0763-9.4894,9.0763-4.34,0-7.1356-2.8048-7.6664-6.8618" transform="translate(-9.9512 -13.9812)"></path><path class="e" d="M43.2532,37.872c.5654-6.3548,4.8531-11.6236,12.2592-11.6236a10.1441,10.1441,0,0,1,5.6915,1.6465l-.4948,5.25a6.4034,6.4034,0,0,0-5.6105-2.6119c-4.6085,0-7.1363,3.2006-7.4975,7.2525-.35,3.9456,1.6871,7.154,6.1513,7.154a8.2989,8.2989,0,0,0,6.1808-2.724l-.4816,5.3894a12.4258,12.4258,0,0,1-6.04,1.6625c-7.3288,0-10.6856-5.4461-10.1583-11.3956" transform="translate(-9.9512 -13.9812)"></path><path class="e" d="M64.6652,26.6666H68.988L67.41,44.6452h6.194c.4366,0,1.9122-.0227,2.3134-.0465-.023.2169-.3953,4.1535-.3953,4.1535H62.7039Z" transform="translate(-9.9512 -13.9812)"></path><path class="e" d="M87.1846,34.9119a5.4115,5.4115,0,0,0,.3213-.9286l.0678-.0017a5.4091,5.4091,0,0,0,.1652.9342c.2365,1.0077,1.9219,6.5982,1.9219,6.5982H84.2026s2.9244-6.4605,2.982-6.6021m1.1086-9.2574-.2993.0051L76.159,48.7522h4.5934l1.6624-3.5031h8.3385l1.0428,3.5031h4.5808Z" transform="translate(-9.9512 -13.9812)"></path></g></g><path d="M118.9205,28.6613h3.94L130,41.2023V28.6613h3.5024V46.6477h-3.7578L122.4224,33.885V46.6477h-3.5019Z" transform="translate(-9.9512 -13.9812)"></path><path d="M141.7667,38.5568a5.4891,5.4891,0,0,0,1.3891-.3047,1.046,1.046,0,0,0,.75-.9882,1.17,1.17,0,0,0-.5752-1.1289,3.64,3.64,0,0,0-1.6884-.3106,2.2178,2.2178,0,0,0-1.7686.6094,2.5146,2.5146,0,0,0-.4946,1.2207h-3.356a5.0919,5.0919,0,0,1,.98-2.8682q1.385-1.7563,4.7554-1.7568a8.4836,8.4836,0,0,1,3.8969.8662,3.3236,3.3236,0,0,1,1.7036,3.2705v6.1016q0,.6342.0245,1.5371a1.93,1.93,0,0,0,.2075.9277,1.24,1.24,0,0,0,.5122.4024v.5127H144.32a3.8507,3.8507,0,0,1-.22-.7569q-.0607-.3529-.0976-.8047a7.181,7.181,0,0,1-1.669,1.33,5.05,5.05,0,0,1-2.5532.6465,4.4052,4.4052,0,0,1-3.001-1.0313,3.6672,3.6672,0,0,1-1.1845-2.9228,3.7871,3.7871,0,0,1,1.9057-3.5508,8.5087,8.5087,0,0,1,3.0733-.8545Zm2.1264,1.6231a3.7958,3.7958,0,0,1-.6743.3359,5.7467,5.7467,0,0,1-.9336.2383l-.792.1465a5.1926,5.1926,0,0,0-1.5986.4756,1.5889,1.5889,0,0,0-.8213,1.4765,1.54,1.54,0,0,0,.502,1.2871,1.9048,1.9048,0,0,0,1.22.3965,3.6389,3.6389,0,0,0,2.1-.6582,2.7915,2.7915,0,0,0,.9975-2.4043Z" transform="translate(-9.9512 -13.9812)"></path><path d="M160.8731,34.11a4.4015,4.4015,0,0,1,1.3062,3.581v8.9571h-3.563V38.5568a3.7172,3.7172,0,0,0-.2788-1.61,1.9569,1.9569,0,0,0-1.938-1.0254,2.4031,2.4031,0,0,0-2.4107,1.501,5.1947,5.1947,0,0,0-.3393,2.0263v7.1993h-3.4776V33.3713H153.54v1.94a5.88,5.88,0,0,1,1.2637-1.4765,4.3775,4.3775,0,0,1,2.71-.8057A5.1,5.1,0,0,1,160.8731,34.11Z" transform="translate(-9.9512 -13.9812)"></path><path d="M176.2549,45.0207a7.3291,7.3291,0,0,1-10.226,0,8.2513,8.2513,0,0,1,0-9.9912,7.2514,7.2514,0,0,1,10.226,0,8.2533,8.2533,0,0,1,0,9.9912Zm-2.7822-1.9219a5.0432,5.0432,0,0,0,.8174-3.083,5.0142,5.0142,0,0,0-.8174-3.0771,3.0913,3.0913,0,0,0-4.6919,0,4.9845,4.9845,0,0,0-.8237,3.0771,5.0133,5.0133,0,0,0,.8237,3.083,3.0805,3.0805,0,0,0,4.6919,0Z" transform="translate(-9.9512 -13.9812)"></path><path d="M180.459,28.6613h3.7583v14.753h8.981v3.2334H180.459Z" transform="translate(-9.9512 -13.9812)"></path><path d="M200.462,38.5568a5.4891,5.4891,0,0,0,1.3891-.3047,1.046,1.046,0,0,0,.7495-.9882,1.17,1.17,0,0,0-.5752-1.1289,3.64,3.64,0,0,0-1.6884-.3106,2.218,2.218,0,0,0-1.7686.6094,2.5155,2.5155,0,0,0-.4946,1.2207h-3.356a5.0919,5.0919,0,0,1,.98-2.8682q1.385-1.7563,4.7554-1.7568a8.4836,8.4836,0,0,1,3.8969.8662,3.3236,3.3236,0,0,1,1.7037,3.2705v6.1016q0,.6342.0244,1.5371a1.93,1.93,0,0,0,.2075.9277,1.2412,1.2412,0,0,0,.5122.4024v.5127h-3.7827a3.8432,3.8432,0,0,1-.22-.7569q-.0609-.3529-.0977-.8047a7.1826,7.1826,0,0,1-1.6689,1.33,5.05,5.05,0,0,1-2.5533.6465,4.4048,4.4048,0,0,1-3.0009-1.0313,3.6669,3.6669,0,0,1-1.1846-2.9228,3.7871,3.7871,0,0,1,1.9057-3.5508,8.5093,8.5093,0,0,1,3.0733-.8545Zm2.1264,1.6231a3.7958,3.7958,0,0,1-.6743.3359,5.7467,5.7467,0,0,1-.9336.2383l-.792.1465a5.1926,5.1926,0,0,0-1.5986.4756,1.5889,1.5889,0,0,0-.8213,1.4765,1.54,1.54,0,0,0,.502,1.2871,1.9048,1.9048,0,0,0,1.22.3965,3.6389,3.6389,0,0,0,2.1-.6582,2.7915,2.7915,0,0,0,.9975-2.4043Z" transform="translate(-9.9512 -13.9812)"></path><path d="M220.2,34.9455a7.6446,7.6446,0,0,1,1.4922,4.8809,8.5535,8.5535,0,0,1-1.4717,5.1377,5.3456,5.3456,0,0,1-6.77,1.3789,5.304,5.304,0,0,1-1.3-1.3672v1.6719h-3.4287V28.6857h3.4775v6.3936a5.0836,5.0836,0,0,1,1.4614-1.415,4.3588,4.3588,0,0,1,2.4073-.61A4.9726,4.9726,0,0,1,220.2,34.9455ZM217.293,43.048a4.9294,4.9294,0,0,0,.75-2.8554,6.3886,6.3886,0,0,0-.3691-2.3428,2.57,2.57,0,0,0-2.5835-1.7578,2.6106,2.6106,0,0,0-2.6211,1.7207,6.41,6.41,0,0,0-.3692,2.3672,4.924,4.924,0,0,0,.7632,2.831,2.6171,2.6171,0,0,0,2.3252,1.1231A2.4135,2.4135,0,0,0,217.293,43.048Z" transform="translate(-9.9512 -13.9812)"></path></svg> 